<svg width="18" height="13" viewBox="0 0 18 13" fill="none" xmlns="http://www.w3.org/2000/svg">
  <path d="M17.031 2.03097C17.1007 1.96124 17.156 1.87846 17.1938 1.78735C17.2315 1.69624 17.2509 1.59859 17.2509 1.49997C17.2509 1.40135 17.2315 1.3037 17.1938 1.2126C17.156 1.12149 17.1007 1.0387 17.031 0.968971C16.9612 0.899239 16.8785 0.843925 16.7873 0.806186C16.6962 0.768447 16.5986 0.749023 16.5 0.749023C16.4014 0.749023 16.3037 0.768447 16.2126 0.806186C16.1215 0.843925 16.0387 0.899239 15.969 0.968971L5.99997 10.9395L2.03097 6.96897C1.96124 6.89924 1.87846 6.84392 1.78735 6.80619C1.69624 6.76845 1.59859 6.74902 1.49997 6.74902C1.40136 6.74902 1.3037 6.76845 1.2126 6.80619C1.12149 6.84392 1.0387 6.89924 0.968971 6.96897C0.899239 7.0387 0.843925 7.12149 0.806186 7.21259C0.768447 7.3037 0.749023 7.40135 0.749023 7.49997C0.749023 7.59859 0.768447 7.69624 0.806186 7.78735C0.843925 7.87846 0.899239 7.96124 0.968971 8.03097L5.46897 12.531C5.53864 12.6008 5.6214 12.6562 5.71252 12.694C5.80364 12.7318 5.90132 12.7513 5.99997 12.7513C6.09862 12.7513 6.1963 12.7318 6.28742 12.694C6.37854 12.6562 6.4613 12.6008 6.53097 12.531L17.031 2.03097Z" fill="white" />
</svg>